<svg id="Calque_1" data-name="Calque 1" xmlns="http://www.w3.org/2000/svg" viewBox="0 0 30.88 29.87"><path d="M29.84,11.16,27.55,9.81a3.58,3.58,0,0,1-1.73-3.08V4a1.84,1.84,0,0,0-.66-1.42A15.62,15.62,0,0,0,21,.13a1.77,1.77,0,0,0-1.54.11L17.17,1.6a3.34,3.34,0,0,1-3.45,0L11.43.24A1.74,1.74,0,0,0,9.89.13,15.26,15.26,0,0,0,5.74,2.6,1.84,1.84,0,0,0,5.07,4V6.73A3.58,3.58,0,0,1,3.34,9.81L1.06,11.16a1.83,1.83,0,0,0-.87,1.3A15.62,15.62,0,0,0,0,14.93,15.44,15.44,0,0,0,.19,17.4a1.83,1.83,0,0,0,.87,1.31l2.28,1.35a3.58,3.58,0,0,1,1.73,3.08v2.71a1.84,1.84,0,0,0,.66,1.42,15.31,15.31,0,0,0,4.16,2.47,1.78,1.78,0,0,0,1.54-.11l2.28-1.36a3.36,3.36,0,0,1,3.46,0l2.29,1.36a1.75,1.75,0,0,0,1.53.11,15.31,15.31,0,0,0,4.16-2.47,1.85,1.85,0,0,0,.67-1.42V23.14a3.58,3.58,0,0,1,1.73-3.08l2.28-1.35a1.86,1.86,0,0,0,.87-1.31,17,17,0,0,0,0-4.93A1.84,1.84,0,0,0,29.84,11.16ZM15.45,24.47a9.41,9.41,0,0,1-9.28-9.53,9.4,9.4,0,0,1,9.28-9.53,9.4,9.4,0,0,1,9.27,9.53A9.4,9.4,0,0,1,15.45,24.47Z"/></svg>